<svg width="23" height="23" viewBox="0 0 23 23" fill="none" xmlns="http://www.w3.org/2000/svg">
<path d="M21.5257 4.1284H1.47438C0.659902 4.1284 0 3.4685 0 2.65407C0 1.83963 0.659902 1.17969 1.47438 1.17969H21.5257C22.3401 1.17969 23 1.83959 23 2.65407C23 3.46855 22.3401 4.1284 21.5257 4.1284Z" fill="black"/>
<path d="M13.2692 12.9742H1.47438C0.659902 12.9742 0 12.3142 0 11.4998C0 10.6853 0.659902 10.0254 1.47438 10.0254H13.2692C14.0837 10.0254 14.7436 10.6853 14.7436 11.4998C14.7436 12.3143 14.0837 12.9742 13.2692 12.9742Z" fill="black"/>
<path d="M21.5253 12.9742H19.1663C18.3518 12.9742 17.6919 12.3142 17.6919 11.4998C17.6919 10.6853 18.3518 10.0254 19.1663 10.0254H21.5253C22.3397 10.0254 22.9996 10.6853 22.9996 11.4998C22.9996 12.3142 22.3397 12.9742 21.5253 12.9742Z" fill="black"/>
<path d="M21.5257 21.8199H1.47438C0.659902 21.8199 0 21.1599 0 20.3455C0 19.531 0.659902 18.8711 1.47438 18.8711H21.5257C22.3401 18.8711 23 19.531 23 20.3455C23 21.1599 22.3401 21.8199 21.5257 21.8199Z" fill="black"/>
</svg>
