<svg width="77" height="77" viewBox="0 0 77 77" fill="none" xmlns="http://www.w3.org/2000/svg">
<path d="M9.62494 12.0315V2.40627C9.62494 1.0761 10.701 0 12.0315 0C13.3614 0 14.4375 1.0761 14.4375 2.40627V12.0315C14.4375 13.3614 13.3614 14.4375 12.0315 14.4375C10.701 14.4376 9.62494 13.3614 9.62494 12.0315ZM50.5318 14.4376C51.8613 14.4376 52.938 13.3615 52.938 12.0317V2.40627C52.938 1.0761 51.8613 0 50.5318 0C49.2016 0 48.1247 1.0761 48.1247 2.40627V12.0315C48.1247 13.3614 49.2016 14.4376 50.5318 14.4376ZM77 57.7496C77 68.3815 68.381 77.0003 57.75 77.0003C47.1197 77.0003 38.5001 68.3815 38.5001 57.7496C38.5001 47.1194 47.1195 38.5001 57.75 38.5001C68.381 38.5001 77 47.1192 77 57.7496ZM72.1881 57.7496C72.1881 49.7894 65.7118 43.3123 57.7501 43.3123C49.7891 43.3123 43.3128 49.7892 43.3128 57.7496C43.3128 65.7115 49.7891 72.1876 57.7501 72.1876C65.7118 72.1876 72.1881 65.7115 72.1881 57.7496ZM19.2502 28.8751H9.62494V38.5001H19.2502V28.8751ZM9.62494 52.9377H19.2502V43.3123H9.62494V52.9377ZM24.0624 38.5001H33.6878V28.8751H24.0624V38.5001ZM24.0624 52.9377H33.6878V43.3123H24.0624V52.9377ZM4.81271 57.2712V24.0624H57.7501V33.6877H62.5628V14.9172C62.5628 11.9939 60.2313 9.62494 57.3508 9.62494H55.3438V12.0317C55.3438 14.682 53.1862 16.8441 50.5319 16.8441C47.8768 16.8441 45.7194 14.682 45.7194 12.0317V9.62494H16.8436V12.0317C16.8436 14.682 14.6865 16.8441 12.0317 16.8441C9.37627 16.8441 7.21898 14.682 7.21898 12.0317V9.62494H5.21436C2.33375 9.62494 0 11.9939 0 14.9172V57.2713C0 60.185 2.33375 62.5631 5.21436 62.5631H33.6878V57.7498H5.21436C4.99632 57.7496 4.81271 57.5245 4.81271 57.2712ZM48.1247 38.5001V28.8751H38.5002V38.5001H48.1247ZM64.9689 57.7496H57.75V50.5307C57.75 49.2013 56.6739 48.1252 55.3437 48.1252C54.0135 48.1252 52.938 49.2013 52.938 50.5307V60.1567C52.938 61.4863 54.0135 62.563 55.3437 62.563H64.9689C66.2991 62.563 67.3752 61.4863 67.3752 60.1567C67.3752 58.8265 66.2991 57.7496 64.9689 57.7496Z" fill="white" fill-opacity="0.91"/>
</svg>
