<svg width="30" height="30" viewBox="0 0 30 30" fill="none" xmlns="http://www.w3.org/2000/svg">
<path d="M2.5 11.5C2.5 9.29086 4.29086 7.5 6.5 7.5H6.60926C7.94668 7.5 9.1956 6.8316 9.93747 5.7188L10.0625 5.5312C10.8044 4.4184 12.0533 3.75 13.3907 3.75H16.6093C17.9467 3.75 19.1956 4.4184 19.9375 5.5312L20.0625 5.7188C20.8044 6.8316 22.0533 7.5 23.3907 7.5H23.5C25.7091 7.5 27.5 9.29086 27.5 11.5V22.25C27.5 24.4591 25.7091 26.25 23.5 26.25H6.5C4.29086 26.25 2.5 24.4591 2.5 22.25V11.5Z" stroke="#14142B" stroke-width="2" stroke-linecap="round" stroke-linejoin="round"/>
<circle cx="15" cy="16.25" r="5" stroke="#14142B" stroke-width="2" stroke-linecap="round" stroke-linejoin="round"/>
</svg>
