<svg width="47" height="47" viewBox="0 0 47 47" fill="none" xmlns="http://www.w3.org/2000/svg">
<g clip-path="url(#clip0_14_503)">
<path d="M23.5 0C10.5206 0 0 10.5206 0 23.5C0 36.4794 10.5206 47 23.5 47C36.4778 47 47 36.4778 47 23.5C47 10.5222 36.4794 0 23.5 0ZM31.8087 29.7319C32.383 30.3062 32.383 31.2359 31.8087 31.8087C31.2343 32.383 30.3047 32.383 29.7319 31.8087L23.5088 25.5856L17.2431 31.8513C16.6644 32.4285 15.7273 32.4285 15.1501 31.8513C14.5715 31.2727 14.5715 30.3356 15.1501 29.7583L21.4158 23.4926L15.1927 17.2695C14.6184 16.6952 14.6184 15.7655 15.1927 15.1928C15.767 14.6185 16.6967 14.6185 17.2694 15.1928L23.4926 21.4159L29.8038 15.1047C30.3825 14.526 31.3195 14.526 31.8968 15.1047C32.4755 15.6833 32.4755 16.6204 31.8968 17.1976L25.5855 23.5089L31.8087 29.7319Z" fill="white"/>
</g>
<defs>
<clipPath id="clip0_14_503">
<rect width="47" height="47" fill="white"/>
</clipPath>
</defs>
</svg>
