<svg width="59" height="85" viewBox="0 0 59 85" fill="none" xmlns="http://www.w3.org/2000/svg">
<path d="M58.0364 20.4792V73.725C58.0364 79.487 53.3851 84.1382 47.6232 84.1382H11.2466C5.4847 84.1382 0.833496 79.487 0.833496 73.725V20.4792C0.833496 14.7172 5.4847 10.066 11.2466 10.066H47.6232C53.3851 10.066 58.0364 14.7172 58.0364 20.4792Z" fill="white" fill-opacity="0.91"/>
<path d="M29.4344 25.2692C21.5899 25.2692 15.2031 31.656 15.2031 39.5005C15.2031 47.3451 21.5899 53.7318 29.4344 53.7318C37.279 53.7318 43.6657 47.3451 43.6657 39.5005C43.6657 31.656 37.279 25.2692 29.4344 25.2692ZM38.7368 42.2079C38.7368 42.4162 38.598 42.555 38.3897 42.555H32.9055C32.6972 42.555 32.5584 42.6939 32.5584 42.9021V48.3864C32.5584 48.5947 32.4195 48.7335 32.2113 48.7335H26.727C26.5187 48.7335 26.3799 48.5947 26.3799 48.3864V42.9021C26.3799 42.6939 26.2411 42.555 26.0328 42.555H20.5485C20.3403 42.555 20.2014 42.4162 20.2014 42.2079V36.7237C20.2014 36.5154 20.3403 36.3766 20.5485 36.3766H25.9634C26.1716 36.3766 26.3105 36.2377 26.3105 36.0295V30.5452C26.3105 30.337 26.4493 30.1981 26.6576 30.1981H32.1418C32.3501 30.1981 32.4889 30.337 32.4889 30.5452V36.0295C32.4889 36.2377 32.6278 36.3766 32.836 36.3766H38.3203C38.5286 36.3766 38.6674 36.5154 38.6674 36.7237V42.2079H38.7368Z" fill="#E074A3"/>
<path d="M47.6228 84.9712H11.2462C4.99831 84.9712 0 79.9035 0 73.725V20.4792C0 14.2313 5.06773 9.23297 11.2462 9.23297H47.6228C53.8707 9.23297 58.869 14.3007 58.869 20.4792V73.725C58.9384 79.9729 53.8707 84.9712 47.6228 84.9712ZM11.2462 10.9685C5.9702 10.9685 1.6661 15.2726 1.6661 20.5486V73.725C1.6661 79.001 5.9702 83.3051 11.2462 83.3051H47.6228C52.8988 83.3051 57.2029 79.001 57.2029 73.725V20.4792C57.2029 15.2032 52.8988 10.8991 47.6228 10.8991H11.2462V10.9685Z" fill="#502D4B"/>
<path d="M47.6227 74.5581H11.2461C10.7602 74.5581 10.4131 74.1416 10.4131 73.7251C10.4131 73.3086 10.8296 72.892 11.2461 72.892H47.6227C48.1087 72.892 48.4558 73.3086 48.4558 73.7251C48.4558 74.1416 48.1087 74.5581 47.6227 74.5581Z" fill="#502D4B"/>
<path d="M47.6227 67.6159H11.2461C10.7602 67.6159 10.4131 67.1994 10.4131 66.7829C10.4131 66.3664 10.8296 65.9498 11.2461 65.9498H47.6227C48.1087 65.9498 48.4558 66.3664 48.4558 66.7829C48.4558 67.1994 48.1087 67.6159 47.6227 67.6159Z" fill="#502D4B"/>
<path d="M47.6227 60.6739H11.2461C10.7602 60.6739 10.4131 60.2574 10.4131 59.8409C10.4131 59.4243 10.8296 59.0078 11.2461 59.0078H47.6227C48.1087 59.0078 48.4558 59.4243 48.4558 59.8409C48.4558 60.2574 48.1087 60.6739 47.6227 60.6739Z" fill="#502D4B"/>
<path d="M34.0852 10.0661V5.41485C34.0852 2.9157 32.0026 0.833069 29.434 0.833069C26.8654 0.833069 24.7828 2.9157 24.7828 5.48427V10.1355H15.5498V14.7173C15.5498 17.2858 17.6324 19.3685 20.201 19.3685H38.7364C41.305 19.3685 43.3876 17.2858 43.3876 14.7173V10.0661H34.0852ZM29.434 8.12227C27.9762 8.12227 26.796 6.94211 26.796 5.48427C26.796 4.09585 27.9762 2.9157 29.434 2.9157C30.8918 2.9157 32.072 4.09585 32.072 5.55369C32.072 6.94211 30.8918 8.12227 29.434 8.12227Z" fill="#898288"/>
<path d="M38.6675 20.2015H20.2015C17.147 20.2015 14.7173 17.7023 14.7173 14.7172V10.066C14.7173 9.58009 15.1338 9.23299 15.5503 9.23299H23.9503V5.48425C23.9503 2.42973 26.4494 0 29.4345 0C32.4196 0 34.9188 2.49915 34.9188 5.48425V9.23299H43.3187C43.8047 9.23299 44.1518 9.64951 44.1518 10.066V14.7172C44.1518 17.7718 41.722 20.2015 38.6675 20.2015ZM16.3834 10.9685V14.7172C16.3834 16.7999 18.0495 18.466 20.1321 18.466H38.6675C40.7501 18.466 42.4162 16.7999 42.4162 14.7172V10.9685H34.0857C33.5998 10.9685 33.2527 10.552 33.2527 10.1355V5.48425C33.2527 3.40163 31.5866 1.73552 29.5039 1.73552C27.4213 1.73552 25.7552 3.40163 25.7552 5.48425V10.1355C25.7552 10.6214 25.3387 10.9685 24.9222 10.9685H16.3834Z" fill="#502D4B"/>
<path d="M29.4339 9.0248C27.4902 9.0248 25.9629 7.49754 25.9629 5.55375C25.9629 3.60996 27.4902 2.0827 29.4339 2.0827C31.3777 2.0827 32.905 3.60996 32.905 5.55375C32.905 7.49754 31.3777 9.0248 29.4339 9.0248ZM29.4339 3.74881C28.462 3.74881 27.6984 4.51244 27.6984 5.48433C27.6984 6.45622 28.462 7.21985 29.4339 7.21985C30.4058 7.21985 31.1695 6.45622 31.1695 5.48433C31.1695 4.51244 30.4058 3.74881 29.4339 3.74881Z" fill="#502D4B"/>
<path d="M29.435 54.5648C21.1045 54.5648 14.3013 47.7616 14.3013 39.431C14.3013 31.1005 21.1045 24.3667 29.435 24.3667C37.7655 24.3667 44.5688 31.17 44.5688 39.5005C44.5688 47.831 37.7655 54.5648 29.435 54.5648ZM29.435 26.1022C22.0764 26.1022 16.1062 32.0724 16.1062 39.431C16.1062 46.7897 22.0764 52.8293 29.435 52.8293C36.7937 52.8293 42.7639 46.8591 42.7639 39.5005C42.7639 32.1418 36.7937 26.1022 29.435 26.1022Z" fill="#502D4B"/>
</svg>
