<svg width="83" height="52" viewBox="0 0 83 52" fill="none" xmlns="http://www.w3.org/2000/svg">
<path d="M17.7859 17.7857C22.6973 17.7857 26.6788 13.8043 26.6788 8.89287C26.6788 3.98147 22.6973 0 17.7859 0C12.8745 0 8.89307 3.98147 8.89307 8.89287C8.89307 13.8043 12.8745 17.7857 17.7859 17.7857Z" fill="white" fill-opacity="0.91"/>
<path d="M65.2142 17.7857C70.1256 17.7857 74.107 13.8043 74.107 8.89287C74.107 3.98147 70.1256 0 65.2142 0C60.3028 0 56.3213 3.98147 56.3213 8.89287C56.3213 13.8043 60.3028 17.7857 65.2142 17.7857Z" fill="white" fill-opacity="0.91"/>
<path d="M59.2858 51.7763V42.8834C59.2858 41.5001 58.693 40.1167 57.5072 39.3263C55.1358 37.3501 51.9739 35.9667 48.812 35.1763C46.6382 34.5834 44.0691 33.9905 41.5001 33.9905C39.1287 33.9905 36.5596 34.3858 34.1882 35.1763C31.0263 35.9667 28.062 37.5477 25.4929 39.3263C24.3072 40.3144 23.7144 41.5001 23.7144 42.8834V51.7763H59.2858Z" fill="white" fill-opacity="0.91"/>
<path d="M41.4998 31.6191C46.4112 31.6191 50.3927 27.6376 50.3927 22.7262C50.3927 17.8148 46.4112 13.8334 41.4998 13.8334C36.5884 13.8334 32.6069 17.8148 32.6069 22.7262C32.6069 27.6376 36.5884 31.6191 41.4998 31.6191Z" fill="white" fill-opacity="0.91"/>
<path d="M81.2215 25.4929C78.85 23.5168 75.6881 22.1334 72.5262 21.3429C70.3524 20.7501 67.7833 20.1572 65.2143 20.1572C62.8429 20.1572 60.2738 20.5525 57.9024 21.3429C56.7167 21.7382 55.5309 22.1334 54.3452 22.7263V22.9239C54.3452 26.2834 52.9619 29.4453 50.7881 31.6191C54.5429 32.8049 57.5071 34.3858 59.8786 36.1644C60.4714 36.7572 61.0643 37.1525 61.4595 37.943H83V29.0501C83 27.6668 82.4072 26.2834 81.2215 25.4929Z" fill="white" fill-opacity="0.91"/>
<path d="M23.1215 36.1644C25.8881 34.1882 29.05 32.6072 32.2119 31.6191C30.0381 29.2477 28.6548 26.2834 28.6548 22.9239C28.6548 22.7263 28.6548 22.7263 28.6548 22.5287C27.4691 22.1334 26.2834 21.5406 25.0976 21.3429C22.9238 20.7501 20.3548 20.1572 17.7857 20.1572C15.4143 20.1572 12.8453 20.5525 10.4738 21.3429C7.31191 22.331 4.34762 23.7144 1.77857 25.4929C0.592858 26.2834 0 27.6668 0 29.0501V37.943H21.3429C21.9357 37.1525 22.331 36.7572 23.1215 36.1644Z" fill="white" fill-opacity="0.91"/>
</svg>
