<svg width="20" height="20" viewBox="0 0 20 20" fill="none" xmlns="http://www.w3.org/2000/svg">
<path d="M5.38444 1.66878L2.97712 1.93625C2.04743 2.03955 1.33141 2.77874 1.45241 3.7063C1.71434 5.71417 2.76196 9.38055 6.69021 13.3088C10.6184 17.237 14.2853 18.2852 16.2935 18.5474C17.2212 18.6686 17.9606 17.9525 18.064 17.0226L18.3314 14.6157C18.4195 13.8231 18.0282 13.0539 17.3357 12.6583L15.6768 11.7106C14.8937 11.2632 13.9082 11.3953 13.2705 12.033L13.0456 12.2579C12.5727 12.7307 11.8903 12.9306 11.2941 12.6278C10.7082 12.3302 9.9133 11.8178 9.04781 10.9524C8.18232 10.0869 7.66995 9.292 7.37238 8.70606C7.06959 8.10984 7.26943 7.42743 7.74228 6.95458L7.9672 6.72966C8.60488 6.09199 8.73692 5.10643 8.28959 4.32338L7.34191 2.66447C6.9463 1.97198 6.17709 1.5807 5.38444 1.66878Z" fill="#B6E7C8"/>
</svg>
