<svg width="107" height="75" viewBox="0 0 107 75" fill="none" xmlns="http://www.w3.org/2000/svg">
<rect width="107" height="57" fill="#D9BDDB"/>
<path d="M50.064 19.448L45.36 35.184L43.512 28.128C45.7147 28.128 47.488 28.744 48.832 29.976C50.2133 31.208 50.904 32.9253 50.904 35.128C50.904 37.2933 50.1947 39.0293 48.776 40.336C47.3947 41.6427 45.64 42.296 43.512 42.296C41.384 42.296 39.6107 41.6427 38.192 40.336C36.8107 39.0293 36.12 37.2933 36.12 35.128C36.12 34.5307 36.1573 33.9333 36.232 33.336C36.344 32.7387 36.5493 32.0107 36.848 31.152C37.184 30.2933 37.6693 29.1733 38.304 27.792L42.224 19.448H50.064ZM56.1553 41.736L60.8593 26L62.7073 33.056C60.542 33.056 58.7686 32.44 57.3873 31.208C56.006 29.9387 55.3153 28.2213 55.3153 26.056C55.3153 23.8533 56.006 22.1173 57.3873 20.848C58.806 19.5413 60.5793 18.888 62.7073 18.888C64.8353 18.888 66.59 19.5413 67.9713 20.848C69.39 22.1173 70.0993 23.8533 70.0993 26.056C70.0993 26.6533 70.0433 27.2507 69.9313 27.848C69.8566 28.4453 69.67 29.1733 69.3713 30.032C69.0726 30.8533 68.5873 31.9733 67.9153 33.392L63.9953 41.736H56.1553Z" fill="black" fill-opacity="0.8"/>
</svg>
