<svg width="96" height="96" viewBox="0 0 96 96" fill="none" xmlns="http://www.w3.org/2000/svg">
<circle cx="48" cy="48" r="48" fill="white"/>
<path d="M48 0C54.3035 0 60.5452 1.24156 66.3688 3.65378C72.1924 6.06601 77.4839 9.60166 81.9411 14.0589C86.3983 18.5161 89.934 23.8076 92.3462 29.6312C94.7584 35.4548 96 41.6965 96 48C96 60.7304 90.9429 72.9394 81.9411 81.9411C72.9394 90.9429 60.7304 96 48 96C25.92 96 7.44 81.216 1.728 61.104L20.112 68.688C21.36 74.88 26.88 79.584 33.456 79.584C40.944 79.584 47.04 73.488 47.04 66V65.376L63.36 53.712H63.744C73.728 53.712 81.84 45.6 81.84 35.616C81.84 25.632 73.728 17.52 63.744 17.52C53.76 17.52 45.6 25.632 45.6 35.616V35.856L34.224 52.464L33.456 52.416C30.624 52.416 27.984 53.28 25.824 54.768L0 44.16C2.064 19.44 22.704 0 48 0ZM30.144 72.816C33.984 74.4 38.4 72.624 39.984 68.784C41.568 64.944 39.744 60.576 36 58.992L29.856 56.448C32.208 55.584 34.848 55.536 37.344 56.592C39.888 57.6 41.856 59.568 42.864 62.112C43.92 64.608 43.92 67.392 42.864 69.888C40.8 75.072 34.704 77.568 29.52 75.408C27.12 74.4 25.296 72.576 24.288 70.416L30.144 72.816ZM75.84 35.616C75.84 42.288 70.416 47.712 63.744 47.712C57.12 47.712 51.696 42.288 51.696 35.616C51.6897 34.0321 51.997 32.4625 52.6002 30.9979C53.2034 29.5333 54.0906 28.2026 55.2106 27.0826C56.3306 25.9626 57.6613 25.0754 59.1259 24.4722C60.5905 23.8689 62.1601 23.5617 63.744 23.568C70.416 23.568 75.84 28.992 75.84 35.616ZM54.72 35.616C54.72 40.608 58.752 44.688 63.792 44.688C68.784 44.688 72.816 40.608 72.816 35.616C72.816 30.624 68.784 26.544 63.792 26.544C58.752 26.544 54.72 30.624 54.72 35.616Z" fill="#0A4158"/>
</svg>
