<svg width="75" height="43" viewBox="0 0 75 43" fill="none" xmlns="http://www.w3.org/2000/svg">
<path fill-rule="evenodd" clip-rule="evenodd" d="M36.9789 42.702H41.3819C41.3819 42.702 42.7119 42.556 43.3909 41.824C44.0159 41.152 43.9959 39.89 43.9959 39.89C43.9959 39.89 43.9099 33.982 46.6519 33.112C49.3549 32.255 52.8259 38.822 56.5049 41.347C59.2869 43.258 61.4009 42.839 61.4009 42.839L71.2379 42.702C71.2379 42.702 76.3839 42.385 73.9439 38.339C73.7439 38.008 72.5229 35.346 66.6299 29.876C60.4619 24.151 61.2879 25.077 68.7179 15.174C73.2429 9.14302 75.0519 5.46102 74.4869 3.88402C73.9479 2.38202 70.6199 2.77902 70.6199 2.77902L59.5439 2.84802C59.5439 2.84802 58.7229 2.73602 58.1139 3.10002C57.5189 3.45702 57.1359 4.28902 57.1359 4.28902C57.1359 4.28902 55.3829 8.95602 53.0449 12.925C48.1129 21.3 46.1409 21.742 45.3349 21.222C43.4599 20.01 43.9279 16.353 43.9279 13.755C43.9279 5.63902 45.1589 2.25502 41.5309 1.37902C40.3269 1.08802 39.4409 0.89602 36.3619 0.86502C32.4099 0.82402 29.0649 0.877019 27.1709 1.80502C25.9109 2.42202 24.9389 3.79702 25.5309 3.87602C26.2629 3.97402 27.9209 4.32302 28.7999 5.52002C29.9349 7.06402 29.8949 10.532 29.8949 10.532C29.8949 10.532 30.5469 20.086 28.3719 21.273C26.8789 22.087 24.8309 20.425 20.4339 12.827C18.1809 8.93502 16.4799 4.63302 16.4799 4.63302C16.4799 4.63302 16.1519 3.82902 15.5669 3.39902C14.8569 2.87802 13.8649 2.71202 13.8649 2.71202L3.33992 2.78102C3.33992 2.78102 1.75992 2.82502 1.17992 3.51202C0.663921 4.12302 1.13892 5.38702 1.13892 5.38702C1.13892 5.38702 9.37892 24.665 18.7089 34.38C27.2639 43.287 36.9789 42.702 36.9789 42.702Z" fill="white"/>
</svg>
